<svg width="173" height="173" viewBox="0 0 173 173" fill="none" xmlns="http://www.w3.org/2000/svg">
<path d="M52.7126 0.0790405H47.9275V4.83634H52.7126V0.0790405Z" fill="black"/>
<path d="M76.6379 0.0790405H71.8528V4.83634H76.6379V0.0790405Z" fill="black"/>
<path d="M110.131 0.0790405H105.346V4.83634H110.131V0.0790405Z" fill="black"/>
<path d="M67.0683 9.59187V4.83457H62.2832V0.0790405H57.498V4.83457V9.59187V14.3492H62.2832V9.59187H67.0683Z" fill="black"/>
<path d="M114.915 4.83459H110.129V9.5919H114.915V4.83459Z" fill="black"/>
<path d="M124.484 14.3492V19.1065H129.269V14.3492V9.5919V4.83459H124.484V9.5919V14.3492Z" fill="black"/>
<path d="M47.9248 14.3492V9.59186H43.1396V14.3492V19.1065H47.9248V14.3492Z" fill="black"/>
<path d="M124.486 0.0790405H119.701V4.83634H124.486V0.0790405Z" fill="black"/>
<path d="M114.913 19.1065H119.698V14.3492V9.59186H114.913V14.3492V19.1065Z" fill="black"/>
<path d="M57.4958 19.1065H52.7107V23.8638H57.4958V19.1065Z" fill="black"/>
<path d="M76.6379 19.1065H71.8528V23.8638H76.6379V19.1065Z" fill="black"/>
<path d="M52.7126 23.8637H47.9275V28.621H52.7126V23.8637Z" fill="black"/>
<path d="M95.7766 23.8637H90.9915V28.621H95.7766V23.8637Z" fill="black"/>
<path d="M47.9248 28.6212H43.1396V33.3785H47.9248V28.6212Z" fill="black"/>
<path d="M100.56 28.6212H95.7749V33.3785H100.56V28.6212Z" fill="black"/>
<path d="M62.2832 33.3765V28.621V23.8637H57.498V28.621V33.3765V38.1338H62.2832V33.3765Z" fill="black"/>
<path d="M71.8537 33.3765V28.621V23.8637H67.0686V28.621V33.3765V38.1338H71.8537V33.3765Z" fill="black"/>
<path d="M95.7766 33.3766H90.9915V38.1339V42.8912H95.7766V38.1339V33.3766Z" fill="black"/>
<path d="M38.3579 42.8912H33.5728V47.6485H38.3579V42.8912Z" fill="black"/>
<path d="M95.7749 47.6485V52.4058H100.56V47.6485V42.8912H95.7749V47.6485Z" fill="black"/>
<path d="M134.056 42.8912H129.271V38.1339H124.486V42.8912H119.701V47.6485H124.486V52.4058H129.271H134.056V47.6485V42.8912Z" fill="black"/>
<path d="M4.86448 47.6486H0.0793457V52.4059H4.86448V47.6486Z" fill="black"/>
<path d="M24.0032 47.6485V42.8912H19.218V47.6485V52.4058H24.0032V47.6485Z" fill="black"/>
<path d="M119.698 47.6486H114.913V52.4059H119.698V47.6486Z" fill="black"/>
<path d="M143.627 47.6486H138.842V52.4059H143.627V47.6486Z" fill="black"/>
<path d="M19.2169 57.1631V52.4058H14.4318V47.6485V42.8912H9.64663H4.86328V47.6485H9.64663V52.4058V57.1631H14.4318H19.2169Z" fill="black"/>
<path d="M110.131 52.4058H105.346V57.1631H110.131V52.4058Z" fill="black"/>
<path d="M157.98 57.1631V52.4058V47.6485V42.8912H153.195V47.6485H148.41V52.4058V57.1631V61.9204H153.195V57.1631H157.98Z" fill="black"/>
<path d="M9.64842 57.1633H4.86328V61.9206H9.64842V57.1633Z" fill="black"/>
<path d="M129.269 23.8637H124.484V28.621H129.269V23.8637Z" fill="black"/>
<path d="M124.486 28.6212H119.701V33.3785H124.486V28.6212Z" fill="black"/>
<path d="M24.0032 57.1633H19.218V61.9206H24.0032V57.1633Z" fill="black"/>
<path d="M57.4958 57.1631V52.4058H52.7107V57.1631V61.9204V66.676H57.4958V61.9204H62.281V57.1631H57.4958Z" fill="black"/>
<path d="M138.842 61.9204V57.1631V52.4058H134.057V57.1631H129.271V61.9204H134.057H138.842Z" fill="black"/>
<path d="M14.435 61.9205H9.6499V66.6778H14.435V61.9205Z" fill="black"/>
<path d="M28.7866 66.676V71.4333H33.5717H38.3551H43.1402H47.9254V66.676V61.9204H43.1402V66.676H38.3551H33.5717V61.9204H38.3551V57.1631V52.4058H33.5717H28.7866V57.1631V61.9204H24.0015V66.676H28.7866Z" fill="black"/>
<path d="M124.483 66.676H129.268V61.9205H124.483H119.698V66.676V71.4333H114.913V76.1906V80.9479H119.698V76.1906H124.483V71.4333V66.676Z" fill="black"/>
<path d="M143.627 66.676H138.844H134.059V71.4333H138.844H143.627V76.1906H148.412H153.197V71.4333V66.676H148.412H143.627Z" fill="black"/>
<path d="M4.86448 71.4333V66.676H0.0793457V71.4333V76.1906H4.86448V71.4333Z" fill="black"/>
<path d="M57.4958 71.4332H52.7107V76.1905H57.4958V71.4332Z" fill="black"/>
<path d="M86.2073 71.4334V76.1907H90.9924H95.7776H100.563V71.4334V66.6761H105.348H110.131H114.916V61.9206V57.1633H110.131V61.9206H105.348H100.563V57.1633H95.7776V61.9206V66.6761H90.9924V71.4334H86.2073Z" fill="black"/>
<path d="M129.269 76.1905H124.484V80.9478V85.7051H129.269V80.9478H134.054V76.1905V71.4332H129.269V76.1905Z" fill="black"/>
<path d="M52.7099 80.9478V76.1906H47.9248H43.1396V80.9478H47.9248H52.7099Z" fill="black"/>
<path d="M62.2802 80.9479V85.7052H67.0653V90.4625V95.2198V99.9771H71.8505V104.734H76.6356H81.4207H86.2059V99.9771V95.2198H81.4207V99.9771H76.6356V95.2198H71.8505V90.4625V85.7052H76.6356H81.4207V90.4625H86.2059V95.2198H90.991H95.7762V99.9771H100.561V95.2198H105.346V90.4625H100.561V85.7052H95.7762V90.4625H90.991V85.7052H86.2059V80.9479H81.4207H76.6356V76.1906V71.4333V66.676H81.4207V71.4333H86.2059V66.676H90.991V61.9187V57.1614H86.2059V61.9187H81.4207V57.1614H86.2059V52.4041H90.991V47.6468H86.2059V42.8895H81.4207V47.6468H76.6356V42.8895H81.4207V38.1322H86.2059V33.3749V28.6176V23.8603V19.103H90.991H95.7762H100.561V23.8603H105.346V28.6176H110.132V33.3749H105.346V38.1322H100.561V42.8895H105.346V47.6468H110.132V42.8895H114.917V38.1322V33.3749V28.6176V23.8603H110.128V19.103V14.3457V9.5919H105.343V4.83459H100.558H95.7726H90.9874V9.5919H95.7726V14.3492H90.9874H86.2023H81.4172V9.5919V4.83459H76.632V9.5919H71.8469H67.0653V14.3492H62.2802V19.1065H67.0653H71.8505V14.3492H76.6356V19.1065H81.4207V23.8638V28.6211H76.6356V33.3784V38.1357H71.8505V42.893H67.0653V38.1357H62.2802V42.893H57.4951V38.1357H52.7099V42.893H47.9248H43.1396V47.6503H47.9248H52.7099H57.4951H62.2802H67.0653V52.4076V57.165V61.9223H62.2802V66.6796V71.4369V76.1942H57.4951V80.9515H62.2802V80.9479ZM71.8505 57.1632V52.4059H76.6356V57.1632V61.9205H71.8505V57.1632ZM67.0653 66.676H71.8505V71.4333H67.0653V66.676ZM71.8505 76.1906V80.9479H67.0653V76.1906H71.8505Z" fill="black"/>
<path d="M105.347 80.9478H110.13V76.1906H105.347H100.562V80.9478H105.347Z" fill="black"/>
<path d="M4.86448 80.9479H0.0793457V85.7052H4.86448V80.9479Z" fill="black"/>
<path d="M52.7126 85.7052H47.9275V90.4625H52.7126V95.2198H57.4978H62.2829V90.4625H57.4978V85.7052V80.9479H52.7126V85.7052Z" fill="black"/>
<path d="M33.5717 90.4625H38.3551H43.1402V85.7052V80.9478H38.3551V76.1906H33.5717H28.7866H24.0015V80.9478H28.7866V85.7052H33.5717V90.4625Z" fill="black"/>
<path d="M110.131 85.7052H105.346V90.4625H110.131V85.7052Z" fill="black"/>
<path d="M129.268 85.7052V90.4625H124.483V95.2198H129.268H134.053V99.9771H138.839V104.734V109.492V114.249V119.006H134.053V123.764H129.268V119.006H134.053V114.249H129.268H124.483H119.698V119.006H124.483V123.764H119.698V128.521H114.913V133.278V138.036H119.698V133.278H124.483V138.036H119.698V142.793H124.483V147.55H119.698V152.307H124.483V157.065H129.268V152.307H134.053V147.55H138.839V152.307H134.053V157.065H138.839V161.822H143.624V166.579H138.839V161.822H134.053V166.579H129.268V171.337H134.053H138.839H143.624H148.409H153.194H157.979V166.579H162.764V161.822H157.979H153.194V166.579H148.409V161.822H153.194V157.065H148.409H143.624V152.307V147.55H148.409V138.036H153.194H157.979V133.278H162.764V128.521H157.979H153.194V133.278H148.409V128.521H153.194V123.764H148.409H143.624V119.006V114.249V109.492V104.734H148.409V109.492V114.249H153.194V109.492V104.734H157.979V99.9771H153.194H148.409H143.624V95.2198H138.839V90.4625H143.624V95.2198H148.409V90.4625H153.194V85.7052H148.409V80.9479H143.624H138.839H134.053V85.7052H129.268ZM143.622 142.789H129.266V128.517H143.622V142.789Z" fill="black"/>
<path d="M119.698 90.4625H124.483V85.7052H119.698H114.913V90.4625V95.2198H119.698V90.4625Z" fill="black"/>
<path d="M157.982 90.4626H153.197V95.2199H157.982V90.4626Z" fill="black"/>
<path d="M33.5737 95.2198H28.7886V99.9771H33.5737V95.2198Z" fill="black"/>
<path d="M114.915 95.2198H110.129V99.9771H114.915V95.2198Z" fill="black"/>
<path d="M95.7766 99.9753H90.9915V104.733H95.7766V99.9753Z" fill="black"/>
<path d="M119.698 104.733H124.483V99.9753H119.698H114.913V104.733V109.49H119.698V104.733Z" fill="black"/>
<path d="M129.269 104.733H124.484V109.49H129.269V104.733Z" fill="black"/>
<path d="M71.8537 109.49H67.0686V114.247H71.8537V109.49Z" fill="black"/>
<path d="M81.4219 109.49H76.6367V114.247H81.4219V109.49Z" fill="black"/>
<path d="M90.9924 109.49H86.2073V114.247H90.9924V109.49Z" fill="black"/>
<path d="M76.6379 114.247H71.8528V119.005H76.6379V114.247Z" fill="black"/>
<path d="M86.2085 114.247H81.4233V119.005H86.2085V114.247Z" fill="black"/>
<path d="M24.0032 119.005V114.247V109.49V104.733V99.9754H19.2181H14.433V95.2199V90.4626H19.2181V95.2199H24.0032H28.7884V90.4626V85.7052H24.0032H19.2181V80.9479V76.1906V71.4333V66.676H14.433V71.4333V76.1906V80.9479V85.7052H9.64783H4.86448V90.4626H9.64783V95.2199H4.86448V90.4626H0.0793457V95.2199V99.9754H4.86448V104.733H0.0793457V109.49V114.247V119.005V123.762V128.519H4.86448H9.64783H14.433V123.762H9.64783V119.005H4.86448V114.247V109.49H9.64783H14.433V104.733H19.2181V109.49V114.247V119.005H14.433V123.762H19.2181H24.0032V128.519H28.7884V123.762H33.5735V119.005H28.7884H24.0032Z" fill="black"/>
<path d="M71.853 123.762V119.005H67.0679V114.247H62.2827V119.005H57.4976V114.247H62.2827V109.49V104.733V99.9754H57.4976H52.7125V104.733H57.4976V109.49H52.7125H47.9273H43.1422H38.3571V104.733H43.1422H47.9273V99.9754H52.7125V95.2199H47.9273V90.4626H43.1422V95.2199V99.9754H38.3571H33.5737V104.733V109.49H28.7886V114.247H33.5737V119.005H38.3571V114.247H43.1422V119.005H47.9273V114.247H52.7125V119.005V123.762H47.9273H43.1422V119.005H38.3571V123.762V128.519H43.1422H47.9273V133.275H43.1422V138.032H47.9273V142.789H52.7125V138.032V133.275V128.519H57.4976V123.762H62.2827V128.519H67.0679V123.762H71.853Z" fill="black"/>
<path d="M100.56 123.762H105.345V119.004H110.129H114.914V114.247V109.49H110.129V114.247H105.345H100.56V109.49H95.7749V114.247V119.004H100.56V123.762Z" fill="black"/>
<path d="M119.698 119.005H114.913V123.762H119.698V119.005Z" fill="black"/>
<path d="M95.7766 123.762V119.005H90.9915V123.762V128.519H95.7766V123.762Z" fill="black"/>
<path d="M114.915 123.762H110.129V128.519H114.915V123.762Z" fill="black"/>
<path d="M105.345 133.275H110.129V128.519H105.345H100.56H95.7749V133.275H100.56H105.345Z" fill="black"/>
<path d="M62.2832 133.275H57.498V138.032H62.2832H67.0683V133.275H62.2832Z" fill="black"/>
<path d="M138.844 133.275H134.059V138.032H138.844V133.275Z" fill="#155EEF"/>
<path d="M71.8537 138.032H67.0686V142.789H71.8537V138.032Z" fill="black"/>
<path d="M157.982 142.789H153.197V147.547H157.982V142.789Z" fill="black"/>
<path d="M47.9248 147.547H43.1396V152.304H47.9248V147.547Z" fill="black"/>
<path d="M67.0671 147.547V142.789H62.282V147.547V152.304V157.061H67.0671V152.304V147.547Z" fill="black"/>
<path d="M114.915 147.547H110.129V152.304H114.915V147.547Z" fill="black"/>
<path d="M57.4958 152.304H52.7107V157.061H57.4958V152.304Z" fill="black"/>
<path d="M76.6379 152.304H71.8528V157.061H76.6379V152.304Z" fill="black"/>
<path d="M52.7099 157.061H47.9248H43.1396V161.819V166.574H47.9248V161.819H52.7099V157.061Z" fill="black"/>
<path d="M71.8537 157.061H67.0686V161.819H71.8537V157.061Z" fill="black"/>
<path d="M100.563 157.061H105.348V152.304H100.563H95.7776V157.061V161.818H90.9925V157.061H86.2074V152.304H90.9925H95.7776V147.547H100.563H105.348H110.133V142.789H105.348H100.563H95.7776V138.032V133.275H90.9925V128.517H86.2074H81.4222V123.76H76.6371H71.852V128.517H67.0686V133.275H71.8537H76.6389V138.032V142.789V147.547V152.304H81.424V157.061H76.6389V161.818V166.576H81.424V161.818H86.2092V166.576H90.9943H95.7794H100.565V161.818L100.563 157.061ZM81.4222 142.789H86.2074V138.032H81.4222V133.275H86.2074V138.032H90.9925V142.789V147.547H86.2074H81.4222V142.789Z" fill="black"/>
<path d="M62.2832 161.818H57.498V166.576H62.2832V161.818Z" fill="black"/>
<path d="M57.4958 166.574H52.7107V171.331H57.4958V166.574Z" fill="black"/>
<path d="M67.0671 166.574H62.282V171.331H67.0671H71.8523H76.6356V166.574H71.8523H67.0671Z" fill="black"/>
<path d="M86.2085 166.574H81.4233V171.331H86.2085V166.574Z" fill="black"/>
<path d="M162.766 109.49H157.981V114.247V119.004H162.766V114.247V109.49Z" fill="black"/>
<path d="M162.766 95.2199H157.981V99.9754H162.766H167.551V104.733H172.334V99.9754V95.2199V90.4626H167.551V95.2199H162.766Z" fill="black"/>
<path d="M167.551 90.4625V85.7052H162.766V80.9479H157.981V85.7052V90.4625H162.766H167.551Z" fill="black"/>
<path d="M162.767 61.9205H157.982H153.197V66.676H157.982V71.4333V76.1906H162.767V71.4333H167.552V66.676H172.336V61.9205H167.552H162.767Z" fill="black"/>
<path d="M167.55 119.005H162.765V123.762H167.55V128.519V133.275H172.333V128.519V123.762V119.005V114.247H167.55V119.005Z" fill="black"/>
<path d="M119.698 152.304H114.913V157.061H119.698V152.304Z" fill="black"/>
<path d="M134.057 157.061H129.271V161.819H134.057V157.061Z" fill="black"/>
<path d="M124.486 161.819V157.061H119.701V161.819H114.916V157.061H110.13V161.819H105.347V166.574H100.562V171.331H105.347H110.13V166.574H114.916V171.331H119.701V166.574H124.486H129.271V161.819H124.486Z" fill="black"/>
<path d="M162.766 147.547H157.981V152.304H162.766V147.547Z" fill="black"/>
<path d="M167.55 152.304H162.765V157.061H167.55V161.819V166.574H172.333V161.819V157.061V152.304V147.547H167.55V152.304Z" fill="black"/>
<path d="M38.3571 0.0790405H0.0795898V38.1357H38.3589L38.3571 0.0790405ZM33.5738 33.3766H4.86473V4.83457H33.5738V33.3766Z" fill="black"/>
<path d="M28.7905 9.59186H9.6499V28.6193H28.7905V9.59186Z" fill="#4E61F6"/>
<path d="M0.0793457 172.335H38.3587V134.278H0.0793457V172.335ZM4.86448 139.036H33.5735V167.578H4.86448V139.036Z" fill="black"/>
<path d="M28.7905 143.793H9.6499V162.821H28.7905V143.793Z" fill="#4E61F6"/>
<path d="M134.059 0.0790405V38.1357H172.338V0.0790405H134.059ZM167.553 33.3766H138.844V4.83457H167.553V33.3766Z" fill="black"/>
<path d="M162.765 9.59186H143.626V28.6193H162.765V9.59186Z" fill="#4E61F6"/>
</svg>
