<svg width="199" height="201" viewBox="0 0 199 201" fill="none" xmlns="http://www.w3.org/2000/svg">
<path d="M190.5 100.5C194.918 100.5 198.533 96.9127 198.186 92.508C197.364 82.0476 194.932 71.7653 190.964 62.04C185.989 49.8468 178.697 38.7683 169.504 29.4356C160.31 20.1034 149.397 12.7009 137.386 7.65005C125.375 2.59979 112.501 5.76888e-07 99.5001 0L99.5001 45.2249C99.5 45.2249 99.5001 45.2249 99.5001 45.2249L99.5001 0C86.4994 -5.76887e-07 73.6253 2.59997 61.6141 7.65024C49.6028 12.7011 38.6896 20.1036 29.4962 29.4357C20.3034 38.7685 13.0113 49.847 8.03587 62.0402C3.06099 74.2334 0.500001 87.3024 0.5 100.5C0.499999 113.698 3.06099 126.767 8.03587 138.96C13.0113 151.153 20.3034 162.232 29.4962 171.564C38.6896 180.897 49.6028 188.299 61.614 193.35C71.1574 197.363 81.2453 199.828 91.5088 200.672C95.9122 201.034 99.4999 197.418 99.4999 193L99.4999 155.775C99.4998 155.775 99.5 155.775 99.4999 155.775C126.904 155.775 149.579 135.224 153.387 108.476C154.01 104.102 157.532 100.5 161.95 100.5H190.5Z" fill="#4E61F6"/>
</svg>
